<svg width="16" height="16" viewBox="0 0 16 16" fill="none" xmlns="http://www.w3.org/2000/svg">
<g id="arrow">
<path id="Vector" d="M7.83333 4.00002C7.83364 4.06572 7.82083 4.13081 7.79564 4.19148C7.77046 4.25216 7.73341 4.30719 7.68666 4.35336L4.04 8.00002L7.68666 11.6467C7.77498 11.7415 7.82307 11.8668 7.82078 11.9964C7.8185 12.1259 7.76602 12.2495 7.67441 12.3411C7.5828 12.4327 7.45921 12.4852 7.32968 12.4875C7.20014 12.4898 7.07478 12.4417 6.98 12.3534L2.98 8.35335C2.88636 8.2596 2.83377 8.13252 2.83377 8.00002C2.83377 7.86752 2.88636 7.74044 2.98 7.64669L6.98 3.64669C7.07375 3.55305 7.20083 3.50046 7.33333 3.50046C7.46583 3.50046 7.59291 3.55305 7.68666 3.64669C7.73341 3.69285 7.77046 3.74788 7.79564 3.80856C7.82083 3.86923 7.83364 3.93433 7.83333 4.00002Z" fill="#B1B5BB"/>
<path id="Vector_2" d="M13.1667 8C13.1649 8.13207 13.1117 8.25825 13.0183 8.35164C12.9249 8.44504 12.7987 8.49827 12.6667 8.5H3.33334C3.20074 8.5 3.07356 8.44732 2.97979 8.35355C2.88602 8.25978 2.83334 8.13261 2.83334 8C2.83334 7.86739 2.88602 7.74022 2.97979 7.64645C3.07356 7.55268 3.20074 7.5 3.33334 7.5H12.6667C12.7987 7.50173 12.9249 7.55496 13.0183 7.64836C13.1117 7.74175 13.1649 7.86793 13.1667 8Z" fill="#B1B5BB"/>
</g>
</svg>
