<svg width="16" height="16" viewBox="0 0 16 16" fill="none" xmlns="http://www.w3.org/2000/svg">
<g id="bus">
<path id="Vector" d="M12 7.33325H4.00002V3.99992H12M11 11.3333C10.7348 11.3333 10.4805 11.2279 10.2929 11.0404C10.1054 10.8528 10 10.5985 10 10.3333C10 10.068 10.1054 9.81368 10.2929 9.62615C10.4805 9.43861 10.7348 9.33325 11 9.33325C11.2652 9.33325 11.5196 9.43861 11.7071 9.62615C11.8947 9.81368 12 10.068 12 10.3333C12 10.5985 11.8947 10.8528 11.7071 11.0404C11.5196 11.2279 11.2652 11.3333 11 11.3333ZM5.00002 11.3333C4.7348 11.3333 4.48045 11.2279 4.29291 11.0404C4.10538 10.8528 4.00002 10.5985 4.00002 10.3333C4.00002 10.068 4.10538 9.81368 4.29291 9.62615C4.48045 9.43861 4.7348 9.33325 5.00002 9.33325C5.26524 9.33325 5.51959 9.43861 5.70713 9.62615C5.89466 9.81368 6.00002 10.068 6.00002 10.3333C6.00002 10.5985 5.89466 10.8528 5.70713 11.0404C5.51959 11.2279 5.26524 11.3333 5.00002 11.3333ZM2.66669 10.6666C2.66669 11.2533 2.92669 11.7799 3.33335 12.1466V13.3333C3.33335 13.5101 3.40359 13.6796 3.52862 13.8047C3.65364 13.9297 3.82321 13.9999 4.00002 13.9999H4.66669C4.8435 13.9999 5.01307 13.9297 5.13809 13.8047C5.26312 13.6796 5.33335 13.5101 5.33335 13.3333V12.6666H10.6667V13.3333C10.6667 13.5101 10.7369 13.6796 10.8619 13.8047C10.987 13.9297 11.1565 13.9999 11.3334 13.9999H12C12.1768 13.9999 12.3464 13.9297 12.4714 13.8047C12.5964 13.6796 12.6667 13.5101 12.6667 13.3333V12.1466C13.0734 11.7799 13.3334 11.2533 13.3334 10.6666V3.99992C13.3334 1.66659 10.9467 1.33325 8.00002 1.33325C5.05335 1.33325 2.66669 1.66659 2.66669 3.99992V10.6666Z" fill="#696C73"/>
</g>
</svg>
