<svg width="16" height="17" viewBox="0 0 16 17" fill="none" xmlns="http://www.w3.org/2000/svg">
<g id="clock-seven_7602672 1" clip-path="url(#clip0_59_990)">
<path id="Vector" d="M8 16.0591C12.4113 16.0591 16 12.4704 16 8.05908C16 3.64775 12.4113 0.059082 8 0.059082C3.58867 0.059082 0 3.64775 0 8.05908C0 12.4704 3.58867 16.0591 8 16.0591ZM8 1.39242C11.676 1.39242 14.6667 4.38308 14.6667 8.05908C14.6667 11.7351 11.676 14.7257 8 14.7257C4.324 14.7257 1.33333 11.7351 1.33333 8.05908C1.33333 4.38308 4.324 1.39242 8 1.39242ZM8.756 10.7017L7.42267 8.39242C7.36467 8.29108 7.33333 8.17642 7.33333 8.05908V4.05908C7.33333 3.69108 7.632 3.39242 8 3.39242C8.368 3.39242 8.66667 3.69108 8.66667 4.05908V7.88042L9.91067 10.0351C10.0947 10.3544 9.98533 10.7617 9.66667 10.9457C9.562 11.0064 9.44667 11.0351 9.334 11.0351C9.10333 11.0351 8.87933 10.9157 8.756 10.7017Z" fill="#2375E1"/>
</g>
<defs>
<clipPath id="clip0_59_990">
<rect width="16" height="16" fill="white" transform="matrix(-1 0 0 1 16 0.059082)"/>
</clipPath>
</defs>
</svg>
