<svg width="16" height="17" viewBox="0 0 16 17" fill="none" xmlns="http://www.w3.org/2000/svg">
<g id="coins_7928162 1" clip-path="url(#clip0_59_1148)">
<path id="Vector" d="M6 2.72575C6 1.25308 8.23867 0.059082 11 0.059082C13.7613 0.059082 16 1.25308 16 2.72575C16 4.19842 13.7613 5.39242 11 5.39242C8.23867 5.39242 6 4.19842 6 2.72575ZM11 6.72575C10.3153 6.72575 9.666 6.64908 9.07267 6.51575C8.16667 5.83642 6.682 5.39242 5 5.39242C2.23867 5.39242 0 6.58642 0 8.05908C0 9.53175 2.23867 10.7257 5 10.7257C7.76133 10.7257 10 9.53175 10 8.05908C10 8.03975 9.99533 8.02108 9.99467 8.00175H10V9.39242C10 10.8651 7.76133 12.0591 5 12.0591C2.23867 12.0591 0 10.8651 0 9.39242V10.7257C0 12.1984 2.23867 13.3924 5 13.3924C7.76133 13.3924 10 12.1984 10 10.7257V12.0591C10 13.5317 7.76133 14.7257 5 14.7257C2.23867 14.7257 0 13.5317 0 12.0591V13.3924C0 14.8651 2.23867 16.0591 5 16.0591C7.76133 16.0591 10 14.8651 10 13.3924V13.3391C10.3233 13.3737 10.6573 13.3924 11 13.3924C13.7613 13.3924 16 12.1984 16 10.7257V9.39242C16 10.8051 13.9387 11.9584 11.3333 12.0504V10.7171C13.9387 10.6251 16 9.47242 16 8.05908V6.72575C16 8.13842 13.9387 9.29175 11.3333 9.38375V8.05042C13.9387 7.95842 16 6.80575 16 5.39242V4.05908C16 5.53175 13.7613 6.72575 11 6.72575Z" fill="#2375E1"/>
</g>
<defs>
<clipPath id="clip0_59_1148">
<rect width="16" height="16" fill="white" transform="translate(0 0.059082)"/>
</clipPath>
</defs>
</svg>
