<svg width="16" height="16" viewBox="0 0 16 16" fill="none" xmlns="http://www.w3.org/2000/svg">
<g id="car">
<path id="Vector" d="M13.848 6.77008L12.936 4.03408C12.8037 3.63574 12.5492 3.28921 12.2088 3.04375C11.8683 2.79829 11.4591 2.66638 11.0393 2.66675H4.96068C4.54094 2.66638 4.13175 2.79829 3.79127 3.04375C3.45078 3.28921 3.19631 3.63574 3.06401 4.03408L2.15201 6.77008C1.90949 6.87156 1.70238 7.04246 1.55672 7.26131C1.41106 7.48016 1.33334 7.73719 1.33334 8.00008V11.3334C1.33334 11.8254 1.60268 12.2507 2.00001 12.4821V14.0001C2.00001 14.1769 2.07025 14.3465 2.19527 14.4715C2.3203 14.5965 2.48987 14.6667 2.66668 14.6667H3.33334C3.51015 14.6667 3.67972 14.5965 3.80475 14.4715C3.92977 14.3465 4.00001 14.1769 4.00001 14.0001V12.6667H12V14.0001C12 14.1769 12.0702 14.3465 12.1953 14.4715C12.3203 14.5965 12.4899 14.6667 12.6667 14.6667H13.3333C13.5102 14.6667 13.6797 14.5965 13.8047 14.4715C13.9298 14.3465 14 14.1769 14 14.0001V12.4821C14.2023 12.3661 14.3704 12.1988 14.4874 11.9972C14.6045 11.7955 14.6663 11.5666 14.6667 11.3334V8.00008C14.6667 7.73719 14.589 7.48016 14.4433 7.26131C14.2976 7.04246 14.0905 6.87156 13.848 6.77008ZM4.96068 4.00008H11.0387C11.326 4.00008 11.5807 4.18275 11.6713 4.45608L12.4087 6.66675H3.59134L4.32801 4.45608C4.37224 4.32328 4.45715 4.20777 4.57071 4.12592C4.68426 4.04407 4.8207 4.00005 4.96068 4.00008ZM3.66668 10.6667C3.53531 10.6667 3.40524 10.6408 3.28389 10.5905C3.16254 10.5402 3.05229 10.4664 2.95943 10.3735C2.86657 10.2806 2.79293 10.1703 2.7427 10.0489C2.69246 9.92754 2.66663 9.79745 2.66668 9.66608C2.66672 9.53472 2.69264 9.40465 2.74295 9.2833C2.79326 9.16195 2.86698 9.05169 2.9599 8.95884C3.05282 8.86598 3.16312 8.79233 3.28451 8.7421C3.40589 8.69187 3.53598 8.66604 3.66734 8.66608C3.93265 8.66617 4.18705 8.77165 4.37459 8.95931C4.56212 9.14697 4.66743 9.40144 4.66734 9.66675C4.66725 9.93205 4.56178 10.1865 4.37412 10.374C4.18646 10.5615 3.93198 10.6668 3.66668 10.6667ZM12.3333 10.6667C12.202 10.6667 12.0719 10.6408 11.9506 10.5905C11.8292 10.5402 11.719 10.4664 11.6261 10.3735C11.5332 10.2806 11.4596 10.1703 11.4094 10.0489C11.3591 9.92754 11.3333 9.79745 11.3333 9.66608C11.3334 9.53472 11.3593 9.40465 11.4096 9.2833C11.4599 9.16195 11.5336 9.05169 11.6266 8.95884C11.7195 8.86598 11.8298 8.79233 11.9512 8.7421C12.0726 8.69187 12.2026 8.66604 12.334 8.66608C12.5993 8.66617 12.8537 8.77165 13.0413 8.95931C13.2288 9.14697 13.3341 9.40144 13.334 9.66675C13.3339 9.93205 13.2284 10.1865 13.0408 10.374C12.8531 10.5615 12.5986 10.6668 12.3333 10.6667Z" fill="#696C73"/>
</g>
</svg>
