<svg width="22" height="16" viewBox="0 0 22 16" fill="none" xmlns="http://www.w3.org/2000/svg">
<g id="Union">
<g id="Union_2">
<path d="M12.6667 8.16108C12.1734 8.49072 11.5933 8.66667 11 8.66667C10.9986 8.66667 10.9972 8.66666 10.9958 8.66666C10.9944 8.66666 10.993 8.66667 10.9916 8.66667C10.3982 8.66667 9.8182 8.49072 9.32486 8.16108C8.83151 7.83143 8.44699 7.3629 8.21993 6.81472C7.99287 6.26654 7.93346 5.66334 8.04921 5.0814C8.16497 4.49945 8.45069 3.9649 8.87025 3.54535C9.2898 3.12579 9.82435 2.84007 10.4063 2.72431C10.6014 2.68551 10.7988 2.66639 10.9958 2.66667C11.1928 2.66639 11.3902 2.68551 11.5853 2.72431C12.1672 2.84007 12.7018 3.12579 13.1213 3.54535C13.5409 3.9649 13.8266 4.49945 13.9424 5.0814C14.0581 5.66334 13.9987 6.26654 13.7716 6.81472C13.5446 7.3629 13.1601 7.83143 12.6667 8.16108Z" fill="#05A13A"/>
<path d="M15.3333 16H6.65823C6.48142 16 6.31185 15.9298 6.18683 15.8047C6.06181 15.6797 5.99157 15.5101 5.99157 15.3333V15C5.99157 13.6739 6.51835 12.4021 7.45603 11.4645C8.39372 10.5268 9.66548 10 10.9916 10C10.993 10 10.9944 10 10.9958 10C10.9972 10 10.9986 10 11 10C12.3261 10 13.5979 10.5268 14.5355 11.4645C15.4732 12.4021 16 13.6739 16 15V15.3333C16 15.5101 15.9298 15.6797 15.8047 15.8047C15.6797 15.9298 15.5101 16 15.3333 16Z" fill="#05A13A"/>
<path d="M6.00004 5.49441C5.5067 5.82405 4.92668 6 4.33333 6C3.53795 5.99912 2.77541 5.68276 2.21299 5.12035C1.65057 4.55793 1.33422 3.79538 1.33333 3C1.33333 2.40666 1.50928 1.82664 1.83892 1.33329C2.16857 0.839943 2.63711 0.455426 3.18528 0.228363C3.73346 0.00129986 4.33666 -0.0581102 4.9186 0.0576455C5.50055 0.173401 6.0351 0.459123 6.45465 0.878681C6.87421 1.29824 7.15993 1.83279 7.27569 2.41473C7.39144 2.99667 7.33204 3.59987 7.10497 4.14805C6.87791 4.69623 6.49339 5.16477 6.00004 5.49441Z" fill="#E5E7EB"/>
<path d="M7.03433 7.96604C6.4986 7.64127 5.90158 7.43064 5.28067 7.34733C4.6218 7.26076 3.95204 7.31573 3.31612 7.50859C2.68019 7.70145 2.09271 8.02775 1.59292 8.4657C1.09313 8.90366 0.692514 9.4432 0.417824 10.0483C0.143134 10.6534 0.000689593 11.3101 0 11.9747V12C0 12.1768 0.0702374 12.3464 0.195262 12.4714C0.320286 12.5964 0.489856 12.6667 0.666667 12.6667H4.44044C4.84961 12.6667 5.21097 12.4136 5.40221 12.0519C5.86911 11.1688 6.53664 10.4101 7.34789 9.8354C7.85969 9.47286 8.05888 8.75057 7.57559 8.35082C7.40519 8.20989 7.22434 8.08122 7.03433 7.96604Z" fill="#E5E7EB"/>
<path d="M15.9915 5.49441C16.4849 5.82405 17.0649 6 17.6582 6C18.4536 5.99912 19.2162 5.68276 19.7786 5.12035C20.341 4.55793 20.6574 3.79538 20.6582 3C20.6582 2.40666 20.4823 1.82664 20.1526 1.33329C19.823 0.839943 19.3545 0.455426 18.8063 0.228363C18.2581 0.00129986 17.6549 -0.0581102 17.073 0.0576455C16.491 0.173401 15.9565 0.459123 15.5369 0.878681C15.1174 1.29824 14.8316 1.83279 14.7159 2.41473C14.6001 2.99667 14.6595 3.59987 14.8866 4.14805C15.1137 4.69623 15.4982 5.16477 15.9915 5.49441Z" fill="#E5E7EB"/>
<path d="M14.9572 7.96604C15.493 7.64127 16.09 7.43064 16.7109 7.34733C17.3698 7.26076 18.0395 7.31573 18.6755 7.50859C19.3114 7.70145 19.8989 8.02775 20.3986 8.4657C20.8984 8.90366 21.2991 9.4432 21.5737 10.0483C21.8484 10.6534 21.9909 11.3101 21.9916 11.9747V12C21.9916 12.1768 21.9213 12.3464 21.7963 12.4714C21.6713 12.5964 21.5017 12.6667 21.3249 12.6667H17.5511C17.142 12.6667 16.7806 12.4136 16.5894 12.0519C16.1225 11.1688 15.4549 10.4101 14.6437 9.8354C14.1319 9.47286 13.9327 8.75057 14.416 8.35082C14.5864 8.20989 14.7672 8.08122 14.9572 7.96604Z" fill="#E5E7EB"/>
</g>
</g>
</svg>
