<svg width="13" height="21" viewBox="0 0 13 21" fill="none" xmlns="http://www.w3.org/2000/svg">
<g id="fa6-solid:person-walking" clip-path="url(#clip0_59_421)">
<path id="Vector" d="M6.25049 2.41309C6.25049 1.9158 6.44803 1.43889 6.79966 1.08726C7.15129 0.73563 7.62821 0.538086 8.12549 0.538086C8.62277 0.538086 9.09968 0.73563 9.45131 1.08726C9.80294 1.43889 10.0005 1.9158 10.0005 2.41309C10.0005 2.91037 9.80294 3.38728 9.45131 3.73891C9.09968 4.09054 8.62277 4.28809 8.12549 4.28809C7.62821 4.28809 7.15129 4.09054 6.79966 3.73891C6.44803 3.38728 6.25049 2.91037 6.25049 2.41309ZM4.94189 8.32324C4.90283 8.33887 4.86768 8.35449 4.82861 8.37012L4.51611 8.50684C3.87549 8.79199 3.3833 9.33496 3.16064 9.99902L3.05908 10.3037C2.84033 10.96 2.1333 11.3115 1.47705 11.0928C0.820801 10.874 0.469238 10.167 0.687988 9.51074L0.789551 9.20605C1.23486 7.87402 2.21924 6.78809 3.50049 6.21777L3.81299 6.08105C4.62549 5.72168 5.50439 5.53418 6.39502 5.53418C8.13721 5.53418 9.70752 6.58105 10.3755 8.18652L10.9771 9.62793L11.813 10.0459C12.4302 10.3545 12.6802 11.1045 12.3716 11.7217C12.063 12.3389 11.313 12.5889 10.6958 12.2803L9.64893 11.7607C9.24658 11.5576 8.93018 11.2217 8.7583 10.8037L8.3833 9.90527L7.62939 12.4639L9.56299 14.5732C9.77393 14.8037 9.92236 15.0811 10.0005 15.3857L10.8989 18.9834C11.0669 19.6514 10.6606 20.3311 9.98877 20.499C9.31689 20.667 8.64111 20.2607 8.47314 19.5889L7.61377 16.1475L4.85205 13.1357C4.27393 12.5068 4.05908 11.6279 4.27783 10.8037L4.93799 8.32324H4.94189ZM2.68408 16.085L3.66064 13.6475C3.74268 13.7646 3.83643 13.874 3.93408 13.9834L5.52393 15.7178L4.95752 17.1318C4.86377 17.3662 4.72314 17.5811 4.54346 17.7607L2.1333 20.1709C1.64502 20.6592 0.852051 20.6592 0.36377 20.1709C-0.124512 19.6826 -0.124512 18.8896 0.36377 18.4014L2.68408 16.085Z" fill="#7A7E88"/>
</g>
<defs>
<clipPath id="clip0_59_421">
<rect width="12.5" height="20" fill="white" transform="translate(0.000488281 0.538086)"/>
</clipPath>
</defs>
</svg>
