<svg width="16" height="17" viewBox="0 0 16 17" fill="none" xmlns="http://www.w3.org/2000/svg">
<g id="wheelchair_5069226 1" clip-path="url(#clip0_59_969)">
<path id="Vector" d="M15.3333 14.059H14.4807L13.6 11.4264C13.4674 11.0287 13.2132 10.6828 12.8734 10.4375C12.5335 10.1921 12.1251 10.0597 11.706 10.059H9.33332C8.9797 10.059 8.64056 9.91857 8.39051 9.66852C8.14046 9.41847 7.99999 9.07933 7.99999 8.72571H12C12.1768 8.72571 12.3464 8.65547 12.4714 8.53045C12.5964 8.40542 12.6667 8.23585 12.6667 8.05904C12.6667 7.88223 12.5964 7.71266 12.4714 7.58764C12.3464 7.46261 12.1768 7.39237 12 7.39237H7.99999V5.39237C7.99598 5.36223 7.98996 5.33239 7.98199 5.30304C8.61309 5.14477 9.16456 4.76123 9.53254 4.22463C9.90052 3.68804 10.0596 3.03542 9.97989 2.38967C9.90015 1.74393 9.58708 1.14962 9.09962 0.718651C8.61217 0.287685 7.98397 0.0498047 7.33332 0.0498047C6.68267 0.0498047 6.05447 0.287685 5.56702 0.718651C5.07956 1.14962 4.76649 1.74393 4.68675 2.38967C4.60702 3.03542 4.76612 3.68804 5.1341 4.22463C5.50208 4.76123 6.05355 5.14477 6.68465 5.30304C6.67667 5.33239 6.67066 5.36223 6.66665 5.39237V8.72571C6.66805 9.42175 6.94153 10.0897 7.4287 10.5868C7.91587 11.0839 8.57811 11.3709 9.27399 11.3864C9.15214 12.115 8.83089 12.7956 8.34588 13.3528C7.86086 13.91 7.23101 14.322 6.52616 14.5432C5.82131 14.7643 5.06898 14.7859 4.35259 14.6056C3.6362 14.4254 2.98373 14.0502 2.46751 13.5218C1.95128 12.9934 1.59148 12.3323 1.42798 11.6119C1.26448 10.8915 1.30367 10.1399 1.54121 9.44038C1.77875 8.74089 2.20535 8.12084 2.77373 7.64897C3.34211 7.17709 4.03006 6.87184 4.76132 6.76704C4.93645 6.74193 5.09444 6.64828 5.20052 6.50669C5.3066 6.36511 5.35209 6.18717 5.32699 6.01204C5.30188 5.83691 5.20823 5.67893 5.06664 5.57284C4.92505 5.46676 4.74712 5.42127 4.57199 5.44637C3.58796 5.5875 2.66297 6.00085 1.90138 6.63975C1.1398 7.27866 0.571936 8.11771 0.261877 9.06221C-0.0481822 10.0067 -0.0880965 11.0191 0.146638 11.985C0.381373 12.951 0.881414 13.8322 1.59033 14.5291C2.29925 15.226 3.18883 15.7108 4.15869 15.929C5.12854 16.1472 6.14007 16.0899 7.07913 15.7637C8.01818 15.4376 8.84738 14.8554 9.47316 14.083C10.0989 13.3106 10.4964 12.3787 10.6207 11.3924H11.706C11.846 11.3923 11.9824 11.4364 12.096 11.5182C12.2095 11.6001 12.2944 11.7156 12.3387 11.8484L13.368 14.9364C13.4122 15.0691 13.497 15.1845 13.6104 15.2663C13.7238 15.3482 13.8601 15.3923 14 15.3924H15.3333C15.5101 15.3924 15.6797 15.3221 15.8047 15.1971C15.9297 15.0721 16 14.9025 16 14.7257C16 14.5489 15.9297 14.3793 15.8047 14.2543C15.6797 14.1293 15.5101 14.059 15.3333 14.059ZM5.99999 2.72571C5.99999 2.462 6.07819 2.20421 6.22469 1.98495C6.3712 1.76568 6.57944 1.59479 6.82308 1.49387C7.06671 1.39295 7.3348 1.36655 7.59344 1.41799C7.85208 1.46944 8.08966 1.59643 8.27613 1.7829C8.4626 1.96937 8.58959 2.20695 8.64103 2.46559C8.69248 2.72423 8.66608 2.99232 8.56516 3.23595C8.46424 3.47959 8.29335 3.68783 8.07408 3.83433C7.85481 3.98084 7.59703 4.05904 7.33332 4.05904C6.9797 4.05904 6.64056 3.91857 6.39051 3.66852C6.14046 3.41847 5.99999 3.07933 5.99999 2.72571Z" fill="#2375E1"/>
</g>
<defs>
<clipPath id="clip0_59_969">
<rect width="16" height="16" fill="white" transform="translate(0 0.059082)"/>
</clipPath>
</defs>
</svg>
